<?xml version="1.0" encoding="UTF-8"?>
<svg version="1.1" viewBox="0 0 816 1056" xml:space="preserve" xmlns="http://www.w3.org/2000/svg"><defs><clipPath id="a"><path d="m0 792h612v-792h-612z"/></clipPath></defs><g transform="matrix(1.3333 0 0 -1.3333 0 1056)"><g clip-path="url(#a)"><path d="m529.23 791c23.126-6.686 52.67-6.201 85.769-2.074v2.074z" fill="#7281a3"/><path d="m529.23 791c23.126-6.686 52.67-6.201 85.769-2.074v2.074z" fill="none" stroke="#7281a3" stroke-width="1.117"/><path d="m482.98 791c4.125-10.825 6.497-22.873 10.319-33.617-2.839 11.133-5.535 22.362-8.192 33.617z" fill="#8b60af"/><path d="m482.98 791c4.125-10.825 6.497-22.873 10.319-33.617-2.839 11.133-5.535 22.362-8.192 33.617z" fill="none" stroke="#8b60af" stroke-width="1.117"/><path d="m485.11 791c2.657-11.255 5.353-22.484 8.192-33.617-2.405 11.279-4.793 22.484-7.167 33.617z" fill="#866eb3"/><path d="m485.11 791c2.657-11.255 5.353-22.484 8.192-33.617-2.405 11.279-4.793 22.484-7.167 33.617z" fill="none" stroke="#866eb3" stroke-width="1.117"/><path d="m486.13 791c2.374-11.133 4.762-22.338 7.167-33.617 5.904-18.236 17.213-34.698 34.909-41.127-14.088 23.187-25.452 48.327-35.035 74.744z" fill="#7966a7"/><path d="m486.13 791c2.374-11.133 4.762-22.338 7.167-33.617 5.904-18.236 17.213-34.698 34.909-41.127-14.088 23.187-25.452 48.327-35.035 74.744z" fill="none" stroke="#7966a7" stroke-width="1.117"/><path d="m493.18 791c9.583-26.417 20.947-51.557 35.035-74.744-6.016 25.3-11.925 50.214-17.757 74.744z" fill="#7770a8"/><path d="m493.18 791c9.583-26.417 20.947-51.557 35.035-74.744-6.016 25.3-11.925 50.214-17.757 74.744z" fill="none" stroke="#7770a8" stroke-width="1.117"/><path d="m510.45 791c5.832-24.53 11.741-49.444 17.757-74.744 20.98-16.96 51.432-25.277 86.79-28.318v18.102c-40.801 22.449-75.634 50.617-100.41 84.96z" fill="#6d669a"/><path d="m510.45 791c5.832-24.53 11.741-49.444 17.757-74.744 20.98-16.96 51.432-25.277 86.79-28.318v18.102c-40.801 22.449-75.634 50.617-100.41 84.96z" fill="none" stroke="#6d669a" stroke-width="1.117"/><path d="m514.59 791c24.774-34.343 59.607-62.511 100.41-84.96v82.886c-33.099-4.127-62.643-4.612-85.769 2.074z" fill="#656f98"/><path d="m514.59 791c24.774-34.343 59.607-62.511 100.41-84.96v82.886c-33.099-4.127-62.643-4.612-85.769 2.074z" fill="none" stroke="#656f98" stroke-width="1.117"/><path d="m0 791v-7.266c2.032 2.41 4.079 4.831 6.14 7.266z" fill="#9c6abb"/><path d="m0 791v-7.266c2.032 2.41 4.079 4.831 6.14 7.266z" fill="none" stroke="#9c6abb" stroke-width="1.117"/><path d="m6.14 791c-2.061-2.435-4.108-4.856-6.14-7.266v-75.602c53.343-5.938 117.96 4.466 186.9 16.955-28.391 21.872-55.991 43.572-82.014 65.913z" fill="#9b5ab2"/><path d="m6.14 791c-2.061-2.435-4.108-4.856-6.14-7.266v-75.602c53.343-5.938 117.96 4.466 186.9 16.955-28.391 21.872-55.991 43.572-82.014 65.913z" fill="none" stroke="#9b5ab2" stroke-width="1.117"/><path d="m104.89 791c26.023-22.341 53.623-44.041 82.014-65.913 18.031 22.408 35.763 44.394 53.028 65.913z" fill="#9b5bb3"/><path d="m104.89 791c26.023-22.341 53.623-44.041 82.014-65.913 18.031 22.408 35.763 44.394 53.028 65.913z" fill="none" stroke="#9b5bb3" stroke-width="1.117"/><path d="m239.93 791c-17.265-21.519-34.997-43.505-53.028-65.913 58.045 7.027 114.86 14.937 167.9 14.328-4.511 17.396-8.984 34.589-13.414 51.585z" fill="#9948a9"/><path d="m239.93 791c-17.265-21.519-34.997-43.505-53.028-65.913 58.045 7.027 114.86 14.937 167.9 14.328-4.511 17.396-8.984 34.589-13.414 51.585z" fill="none" stroke="#9948a9" stroke-width="1.117"/><path d="m341.38 791c4.43-16.996 8.903-34.189 13.414-51.585 28.867 20.632 53.894 38.029 75.01 51.585z" fill="#9947a8"/><path d="m341.38 791c4.43-16.996 8.903-34.189 13.414-51.585 28.867 20.632 53.894 38.029 75.01 51.585z" fill="none" stroke="#9947a8" stroke-width="1.117"/><path d="m429.81 791c-21.116-13.556-46.143-30.953-75.01-51.585 62.085 14.292 113.91 12.335 134.25-12.269-5.054 21.544-10.057 42.829-15.039 63.854z" fill="#943ba0"/><path d="m429.81 791c-21.116-13.556-46.143-30.953-75.01-51.585 62.085 14.292 113.91 12.335 134.25-12.269-5.054 21.544-10.057 42.829-15.039 63.854z" fill="none" stroke="#943ba0" stroke-width="1.117"/><path d="m474.01 791c4.982-21.025 9.985-42.31 15.039-63.854 14.584-28.723 21.344-61.182 29.049-92.755-12.168 53.085-23.405 106.45-41.087 156.61z" fill="#8a3d9c"/><path d="m474.01 791c4.982-21.025 9.985-42.31 15.039-63.854 14.584-28.723 21.344-61.182 29.049-92.755-12.168 53.085-23.405 106.45-41.087 156.61z" fill="none" stroke="#8a3d9c" stroke-width="1.117"/><path d="m477.01 791c17.682-50.155 28.919-103.52 41.087-156.61-8.683 42.441-16.962 83.402-24.794 122.99-3.822 10.744-6.194 22.792-10.319 33.617z" fill="#86479f"/><path d="m477.01 791c17.682-50.155 28.919-103.52 41.087-156.61-8.683 42.441-16.962 83.402-24.794 122.99-3.822 10.744-6.194 22.792-10.319 33.617z" fill="none" stroke="#86479f" stroke-width="1.117"/><path d="m493.3 757.38c7.832-39.59 16.111-80.551 24.794-122.99 8.755-35.501 20.576-69.766 45.717-90.804-31.721 67.108-52.864 139.69-70.511 213.8" fill="#7c3e93"/><path d="m493.3 757.38c7.832-39.59 16.111-80.551 24.794-122.99 8.755-35.501 20.576-69.766 45.717-90.804-31.721 67.108-52.864 139.69-70.511 213.8z" fill="none" stroke="#7c3e93" stroke-width="1.117"/><path d="m493.3 757.38c17.647-74.107 38.79-146.69 70.511-213.8-12.341 59.699-24.189 117.22-35.602 172.67-17.696 6.429-29.005 22.891-34.909 41.127" fill="#784d96"/><path d="m493.3 757.38c17.647-74.107 38.79-146.69 70.511-213.8-12.341 59.699-24.189 117.22-35.602 172.67-17.696 6.429-29.005 22.891-34.909 41.127z" fill="none" stroke="#784d96" stroke-width="1.117"/><path d="m615 687.94c-35.358 3.041-65.81 11.358-86.79 28.318 11.413-55.451 23.261-112.97 35.602-172.67 10.757 27.996 28.651 57.717 51.188 89.553z" fill="#6f4f8d"/><path d="m615 687.94c-35.358 3.041-65.81 11.358-86.79 28.318 11.413-55.451 23.261-112.97 35.602-172.67 10.757 27.996 28.651 57.717 51.188 89.553z" fill="none" stroke="#6f4f8d" stroke-width="1.117"/><path d="m615 633.14c-22.537-31.836-40.431-61.557-51.188-89.553 13.897-2.618 31.204-1.077 51.188 2.959z" fill="#684481"/><path d="m615 633.14c-22.537-31.836-40.431-61.557-51.188-89.553 13.897-2.618 31.204-1.077 51.188 2.959z" fill="none" stroke="#684481" stroke-width="1.117"/><path d="m0 545.4c0.857-0.163 1.718-0.319 2.583-0.469-0.866 2.471-1.727 4.942-2.583 7.412z" fill="#8a4ea4"/><path d="m0 545.4c0.857-0.163 1.718-0.319 2.583-0.469-0.866 2.471-1.727 4.942-2.583 7.412z" fill="none" stroke="#8a4ea4" stroke-width="1.117"/><path d="m0 552.34c0.856-2.47 1.717-4.941 2.583-7.412 28.825 1.525 60.176 7.187 93.654 15.075-35.654 26.591-68.135 56.156-96.237 88.74z" fill="#8b45a1"/><path d="m0 552.34c0.856-2.47 1.717-4.941 2.583-7.412 28.825 1.525 60.176 7.187 93.654 15.075-35.654 26.591-68.135 56.156-96.237 88.74z" fill="none" stroke="#8b45a1" stroke-width="1.117"/><path d="m0 648.74c28.102-32.584 60.583-62.149 96.237-88.74 29.522 55.679 60.16 110.7 90.664 165.09-68.946-12.489-133.56-22.893-186.9-16.955z" fill="#9947a8"/><path d="m0 648.74c28.102-32.584 60.583-62.149 96.237-88.74 29.522 55.679 60.16 110.7 90.664 165.09-68.946-12.489-133.56-22.893-186.9-16.955z" fill="none" stroke="#9947a8" stroke-width="1.117"/><path d="m186.9 725.09c-30.504-54.39-61.142-109.41-90.664-165.09 68.544 17.992 139.4 43.284 210.46 64.025-39.968 35.821-80.625 68.726-119.79 101.06" fill="#8e3a9c"/><path d="m186.9 725.09c-30.504-54.39-61.142-109.41-90.664-165.09 68.544 17.992 139.4 43.284 210.46 64.025-39.968 35.821-80.625 68.726-119.79 101.06z" fill="none" stroke="#8e3a9c" stroke-width="1.117"/><path d="m186.9 725.09c39.169-32.335 79.826-65.24 119.79-101.06 17.389 39.903 33.539 78.375 48.102 115.39-53.041 0.609-109.85-7.301-167.9-14.328" fill="#98389e"/><path d="m186.9 725.09c39.169-32.335 79.826-65.24 119.79-101.06 17.389 39.903 33.539 78.375 48.102 115.39-53.041 0.609-109.85-7.301-167.9-14.328z" fill="none" stroke="#98389e" stroke-width="1.117"/><path d="m354.8 739.42c-14.563-37.014-30.713-75.486-48.102-115.39 77.883 0.934 148.36-8.113 189.89-42.814-35.211 63.005-84.676 116.47-141.79 158.2" fill="#8c2a92"/><path d="m354.8 739.42c-14.563-37.014-30.713-75.486-48.102-115.39 77.883 0.934 148.36-8.113 189.89-42.814-35.211 63.005-84.676 116.47-141.79 158.2z" fill="none" stroke="#8c2a92" stroke-width="1.117"/><path d="m354.8 739.42c57.115-41.731 106.58-95.198 141.79-158.2-0.132 52.238-2.897 100.85-7.542 145.93-20.337 24.604-72.164 26.561-134.25 12.269" fill="#932b96"/><path d="m354.8 739.42c57.115-41.731 106.58-95.198 141.79-158.2-0.132 52.238-2.897 100.85-7.542 145.93-20.337 24.604-72.164 26.561-134.25 12.269z" fill="none" stroke="#932b96" stroke-width="1.117"/><path d="m489.05 727.15c4.645-45.084 7.41-93.696 7.542-145.93 23.6-4.242 35.74-23.8 41.015-42.399-14.323 64.343-28.95 127.82-48.557 188.33" fill="#852989"/><path d="m489.05 727.15c4.645-45.084 7.41-93.696 7.542-145.93 23.6-4.242 35.74-23.8 41.015-42.399-14.323 64.343-28.95 127.82-48.557 188.33z" fill="none" stroke="#852989" stroke-width="1.117"/><path d="m489.05 727.15c19.607-60.518 34.234-123.99 48.557-188.33-6.677 32.752-13.203 64.591-19.508 95.578-7.705 31.573-14.465 64.032-29.049 92.755" fill="#862e90"/><path d="m489.05 727.15c19.607-60.518 34.234-123.99 48.557-188.33-6.677 32.752-13.203 64.591-19.508 95.578-7.705 31.573-14.465 64.032-29.049 92.755z" fill="none" stroke="#862e90" stroke-width="1.117"/><path d="m518.1 634.39c6.305-30.987 12.831-62.826 19.508-95.578 2.122-3.334 10.446-3.185 26.209 4.774-25.141 21.038-36.962 55.303-45.717 90.804" fill="#7d2e85"/><path d="m518.1 634.39c6.305-30.987 12.831-62.826 19.508-95.578 2.122-3.334 10.446-3.185 26.209 4.774-25.141 21.038-36.962 55.303-45.717 90.804z" fill="none" stroke="#7d2e85" stroke-width="1.117"/><path d="m563.81 543.59c-15.763-7.959-24.087-8.108-26.209-4.774 13.372-56.209 28.248-111.94 67.375-146.14-14.324 51.55-28.036 101.84-41.166 150.92" fill="#6d2571"/><path d="m563.81 543.59c-15.763-7.959-24.087-8.108-26.209-4.774 13.372-56.209 28.248-111.94 67.375-146.14-14.324 51.55-28.036 101.84-41.166 150.92z" fill="none" stroke="#6d2571" stroke-width="1.117"/><path d="m615 497.25c-20.264 13.248-37.614 28.529-51.188 46.333 13.13-49.079 26.842-99.366 41.166-150.92 3.247-0.023 6.588 0.077 10.022 0.291z" fill="#602463"/><path d="m615 497.25c-20.264 13.248-37.614 28.529-51.188 46.333 13.13-49.079 26.842-99.366 41.166-150.92 3.247-0.023 6.588 0.077 10.022 0.291z" fill="none" stroke="#602463" stroke-width="1.117"/><path d="m615 546.55c-19.984-4.036-37.291-5.577-51.188-2.959 13.574-17.804 30.924-33.085 51.188-46.333z" fill="#662f6e"/><path d="m615 546.55c-19.984-4.036-37.291-5.577-51.188-2.959 13.574-17.804 30.924-33.085 51.188-46.333z" fill="none" stroke="#662f6e" stroke-width="1.117"/><path d="m0 544.17c0.858 0.249 1.719 0.501 2.583 0.759-0.865 0.15-1.726 0.306-2.583 0.469z" fill="#744f92"/><path d="m0 544.17c0.858 0.249 1.719 0.501 2.583 0.759-0.865 0.15-1.726 0.306-2.583 0.469z" fill="none" stroke="#744f92" stroke-width="1.117"/><path d="m0 383.35c2.966-1.639 5.978-3.215 9.035-4.727-2.229 57.285-4.374 112.69-6.452 166.3-0.864-0.258-1.725-0.51-2.583-0.759z" fill="#664a81"/><path d="m0 383.35c2.966-1.639 5.978-3.215 9.035-4.727-2.229 57.285-4.374 112.69-6.452 166.3-0.864-0.258-1.725-0.51-2.583-0.759z" fill="none" stroke="#664a81" stroke-width="1.117"/><path d="m2.583 544.93c2.078-53.612 4.223-109.01 6.452-166.3 34.16 21.408 71.262 45.895 111.11 72.667-44.085 27.663-84.238 58.297-117.57 93.632" fill="#65427c"/><path d="m2.583 544.93c2.078-53.612 4.223-109.01 6.452-166.3 34.16 21.408 71.262 45.895 111.11 72.667-44.085 27.663-84.238 58.297-117.57 93.632z" fill="none" stroke="#65427c" stroke-width="1.117"/><path d="m2.583 544.93c33.328-35.335 73.481-65.969 117.57-93.632-8.203 37.023-16.191 73.244-23.912 108.71-33.478-7.888-64.829-13.55-93.654-15.075" fill="#743e8a"/><path d="m2.583 544.93c33.328-35.335 73.481-65.969 117.57-93.632-8.203 37.023-16.191 73.244-23.912 108.71-33.478-7.888-64.829-13.55-93.654-15.075z" fill="none" stroke="#743e8a" stroke-width="1.117"/><path d="m96.237 560c7.721-35.463 15.709-71.684 23.912-108.71 62.095 57.93 125.75 116.2 186.55 172.73-71.062-20.741-141.91-46.033-210.46-64.025" fill="#79388a"/><path d="m96.237 560c7.721-35.463 15.709-71.684 23.912-108.71 62.095 57.93 125.75 116.2 186.55 172.73-71.062-20.741-141.91-46.033-210.46-64.025z" fill="none" stroke="#79388a" stroke-width="1.117"/><path d="m306.7 624.03c-60.792-56.532-124.45-114.8-186.55-172.73 108.32-3.686 221.53 11.401 319.96-7.233-41.912 65.376-87.325 124.91-133.41 179.96" fill="#6c3078"/><path d="m306.7 624.03c-60.792-56.532-124.45-114.8-186.55-172.73 108.32-3.686 221.53 11.401 319.96-7.233-41.912 65.376-87.325 124.91-133.41 179.96z" fill="none" stroke="#6c3078" stroke-width="1.117"/><path d="m306.7 624.03c46.088-55.055 91.501-114.59 133.41-179.96 26.138 50.703 45.55 96.494 56.48 137.15-41.536 34.701-112.01 43.748-189.89 42.814" fill="#74297b"/><path d="m306.7 624.03c46.088-55.055 91.501-114.59 133.41-179.96 26.138 50.703 45.55 96.494 56.48 137.15-41.536 34.701-112.01 43.748-189.89 42.814z" fill="none" stroke="#74297b" stroke-width="1.117"/><path d="m496.59 581.21c-10.93-40.657-30.342-86.448-56.48-137.15 54.273-4.724 98.081-24.242 118.39-54.959-18.737 66.712-39.158 130.92-61.914 192.11" fill="#602362"/><path d="m496.59 581.21c-10.93-40.657-30.342-86.448-56.48-137.15 54.273-4.724 98.081-24.242 118.39-54.959-18.737 66.712-39.158 130.92-61.914 192.11z" fill="none" stroke="#602362" stroke-width="1.117"/><path d="m496.59 581.21c22.756-61.185 43.177-125.4 61.914-192.11-3.558 54.774-12.234 104.26-20.899 149.71-5.275 18.599-17.415 38.157-41.015 42.399" fill="#69216c"/><path d="m496.59 581.21c22.756-61.185 43.177-125.4 61.914-192.11-3.558 54.774-12.234 104.26-20.899 149.71-5.275 18.599-17.415 38.157-41.015 42.399z" fill="none" stroke="#69216c" stroke-width="1.117"/><path d="m537.6 538.81c8.665-45.446 17.341-94.937 20.899-149.71 18.229-17.818 16.975-47.511 29.699-66.942-19.118 72.163-34.792 144.75-50.598 216.65" fill="#542358"/><path d="m537.6 538.81c8.665-45.446 17.341-94.937 20.899-149.71 18.229-17.818 16.975-47.511 29.699-66.942-19.118 72.163-34.792 144.75-50.598 216.65z" fill="none" stroke="#542358" stroke-width="1.117"/><path d="m537.6 538.81c15.806-71.899 31.48-144.49 50.598-216.65 0.14 22.008 5.668 45.895 16.777 70.511-39.127 34.206-54.003 89.933-67.375 146.14" fill="#57235b"/><path d="m537.6 538.81c15.806-71.899 31.48-144.49 50.598-216.65 0.14 22.008 5.668 45.895 16.777 70.511-39.127 34.206-54.003 89.933-67.375 146.14z" fill="none" stroke="#57235b" stroke-width="1.117"/><path d="m615 363.41c-3.391 9.781-6.733 19.535-10.022 29.263-11.109-24.616-16.637-48.503-16.777-70.511 5.272-4.576 14.681-5.985 26.799-4.93z" fill="#431c44"/><path d="m615 363.41c-3.391 9.781-6.733 19.535-10.022 29.263-11.109-24.616-16.637-48.503-16.777-70.511 5.272-4.576 14.681-5.985 26.799-4.93z" fill="none" stroke="#431c44" stroke-width="1.117"/><path d="m615 392.96c-3.434-0.214-6.775-0.314-10.022-0.291 3.289-9.728 6.631-19.482 10.022-29.263z" fill="#481f4b"/><path d="m615 392.96c-3.434-0.214-6.775-0.314-10.022-0.291 3.289-9.728 6.631-19.482 10.022-29.263z" fill="none" stroke="#481f4b" stroke-width="1.117"/><path d="m0 373.89c2.979 1.546 5.991 3.126 9.035 4.738-3.057 1.512-6.069 3.088-9.035 4.727z" fill="#524f71"/><path d="m0 373.89c2.979 1.546 5.991 3.126 9.035 4.738-3.057 1.512-6.069 3.088-9.035 4.727z" fill="none" stroke="#524f71" stroke-width="1.117"/><path d="m0 217.71c10.591-2.716 21.621-4.731 33.104-5.962-8.417 57.248-16.439 112.85-24.069 166.88-3.044-1.612-6.056-3.192-9.035-4.738z" fill="#534a6e"/><path d="m0 217.71c10.591-2.716 21.621-4.731 33.104-5.962-8.417 57.248-16.439 112.85-24.069 166.88-3.044-1.612-6.056-3.192-9.035-4.738z" fill="none" stroke="#534a6e" stroke-width="1.117"/><path d="m9.035 378.63c7.63-54.031 15.652-109.63 24.069-166.88 48.46 5.822 101.93 18.609 159.58 33.682-70.156 39.343-134.14 81.46-183.64 133.2" fill="#534169"/><path d="m9.035 378.63c7.63-54.031 15.652-109.63 24.069-166.88 48.46 5.822 101.93 18.609 159.58 33.682-70.156 39.343-134.14 81.46-183.64 133.2z" fill="none" stroke="#534169" stroke-width="1.117"/><path d="m9.035 378.63c49.507-51.735 113.49-93.852 183.64-133.2-25.681 71.309-49.916 139.82-72.53 205.86-39.852-26.772-76.954-51.259-111.11-72.667" fill="#533e68"/><path d="m9.035 378.63c49.507-51.735 113.49-93.852 183.64-133.2-25.681 71.309-49.916 139.82-72.53 205.86-39.852-26.772-76.954-51.259-111.11-72.667z" fill="none" stroke="#533e68" stroke-width="1.117"/><path d="m120.15 451.29c22.614-66.037 46.849-134.55 72.53-205.86 90.094 71.81 176.21 139.27 247.43 198.63-98.433 18.634-211.64 3.547-319.96 7.233" fill="#543562"/><path d="m120.15 451.29c22.614-66.037 46.849-134.55 72.53-205.86 90.094 71.81 176.21 139.27 247.43 198.63-98.433 18.634-211.64 3.547-319.96 7.233z" fill="none" stroke="#543562" stroke-width="1.117"/><path d="m440.11 444.06c-71.221-59.36-157.34-126.82-247.43-198.63 54.079 15.827 108.36 32.859 161.72 47.907 50.015 14.111 95.423 25.549 135.05 30.74-16.253 41.175-32.719 81.16-49.343 119.98" fill="#532c5d"/><path d="m440.11 444.06c-71.221-59.36-157.34-126.82-247.43-198.63 54.079 15.827 108.36 32.859 161.72 47.907 50.015 14.111 95.423 25.549 135.05 30.74-16.253 41.175-32.719 81.16-49.343 119.98z" fill="none" stroke="#532c5d" stroke-width="1.117"/><path d="m440.11 444.06c16.624-38.822 33.09-78.807 49.343-119.98 34.033 28.068 57.473 49.025 69.051 65.023-20.313 30.717-64.121 50.235-118.39 54.959" fill="#512353"/><path d="m440.11 444.06c16.624-38.822 33.09-78.807 49.343-119.98 34.033 28.068 57.473 49.025 69.051 65.023-20.313 30.717-64.121 50.235-118.39 54.959z" fill="none" stroke="#512353" stroke-width="1.117"/><path d="m558.5 389.1c-11.578-15.998-35.018-36.955-69.051-65.023 44.465-0.494 79.034-13.227 93.634-34.96-8.126 33.857-16.337 67.18-24.583 99.983" fill="#4b204c"/><path d="m558.5 389.1c-11.578-15.998-35.018-36.955-69.051-65.023 44.465-0.494 79.034-13.227 93.634-34.96-8.126 33.857-16.337 67.18-24.583 99.983z" fill="none" stroke="#4b204c" stroke-width="1.117"/><path d="m558.5 389.1c8.246-32.803 16.457-66.126 24.583-99.983 5.587 11.839 0.979 23.079 5.116 33.041-12.724 19.431-11.47 49.124-29.699 66.942" fill="#401a40"/><path d="m558.5 389.1c8.246-32.803 16.457-66.126 24.583-99.983 5.587 11.839 0.979 23.079 5.116 33.041-12.724 19.431-11.47 49.124-29.699 66.942z" fill="none" stroke="#401a40" stroke-width="1.117"/><path d="m615 191.17c-9.199 44.824-18.101 88.478-26.799 130.99-4.137-9.962 0.471-21.202-5.116-33.041 16.25-33.025 19.873-70.307 31.915-102.78z" fill="#391838"/><path d="m615 191.17c-9.199 44.824-18.101 88.478-26.799 130.99-4.137-9.962 0.471-21.202-5.116-33.041 16.25-33.025 19.873-70.307 31.915-102.78z" fill="none" stroke="#391838" stroke-width="1.117"/><path d="m615 255.72c-10.675 21.295-19.527 43.597-26.799 66.442 8.698-42.511 17.6-86.165 26.799-130.99z" fill="#2d152b"/><path d="m615 255.72c-10.675 21.295-19.527 43.597-26.799 66.442 8.698-42.511 17.6-86.165 26.799-130.99z" fill="none" stroke="#2d152b" stroke-width="1.117"/><path d="m615 317.23c-12.118-1.055-21.527 0.354-26.799 4.93 7.272-22.845 16.124-45.147 26.799-66.442z" fill="#2c152a"/><path d="m615 317.23c-12.118-1.055-21.527 0.354-26.799 4.93 7.272-22.845 16.124-45.147 26.799-66.442z" fill="none" stroke="#2c152a" stroke-width="1.117"/><path d="m0 215.15c10.652-1.728 21.703-2.87 33.104-3.396-11.483 1.231-22.513 3.246-33.104 5.962z" fill="#515d78"/><path d="m0 215.15c10.652-1.728 21.703-2.87 33.104-3.396-11.483 1.231-22.513 3.246-33.104 5.962z" fill="none" stroke="#515d78" stroke-width="1.117"/><path d="m615 185.27c-7.535 16.82-9.736 36.83-17.936 54.933-9.103 20.094-30.281 37.385-60.437 43.802-39.02 8.279-89.611 4.396-147.54-3.803-64.059-9.114-130.29-23.055-196.41-34.774-57.647-15.073-111.12-27.86-159.58-33.682 66.092 2.026 140.96 17.491 221.72 33.788 81.73 16.605 158.57 32.887 225.44 35.52 52.125 2.035 93.034-8.524 110.02-31.229 14.285-19.16 15.436-44.587 24.721-64.694z" fill="#532c5d"/><path d="m615 185.27c-7.535 16.82-9.736 36.83-17.936 54.933-9.103 20.094-30.281 37.385-60.437 43.802-39.02 8.279-89.611 4.396-147.54-3.803-64.059-9.114-130.29-23.055-196.41-34.774-57.647-15.073-111.12-27.86-159.58-33.682 66.092 2.026 140.96 17.491 221.72 33.788 81.73 16.605 158.57 32.887 225.44 35.52 52.125 2.035 93.034-8.524 110.02-31.229 14.285-19.16 15.436-44.587 24.721-64.694z" fill="none" stroke="#532c5d" stroke-width="1.117"/><path d="m615 185.82c-10.338 25.528-12.828 55.684-26.826 81.622-15.431 28.572-51.374 49.959-98.723 56.635-39.628-5.191-85.036-16.629-135.05-30.74-53.358-15.048-107.64-32.08-161.72-47.907 66.119 11.719 132.35 25.66 196.41 34.774 57.928 8.199 108.52 12.082 147.54 3.803 30.156-6.417 51.334-23.708 60.437-43.802 8.2-18.103 10.401-38.113 17.936-54.933z" fill="#522454"/><path d="m615 185.82c-10.338 25.528-12.828 55.684-26.826 81.622-15.431 28.572-51.374 49.959-98.723 56.635-39.628-5.191-85.036-16.629-135.05-30.74-53.358-15.048-107.64-32.08-161.72-47.907 66.119 11.719 132.35 25.66 196.41 34.774 57.928 8.199 108.52 12.082 147.54 3.803 30.156-6.417 51.334-23.708 60.437-43.802 8.2-18.103 10.401-38.113 17.936-54.933z" fill="none" stroke="#522454" stroke-width="1.117"/><path d="m615 186.34c-12.042 32.468-15.665 69.75-31.915 102.78-14.6 21.733-49.169 34.466-93.634 34.96 47.349-6.676 83.292-28.063 98.723-56.635 13.998-25.938 16.488-56.094 26.826-81.622z" fill="#451d46"/><path d="m615 186.34c-12.042 32.468-15.665 69.75-31.915 102.78-14.6 21.733-49.169 34.466-93.634 34.96 47.349-6.676 83.292-28.063 98.723-56.635 13.998-25.938 16.488-56.094 26.826-81.622z" fill="none" stroke="#451d46" stroke-width="1.117"/></g></g></svg>
